<?xml version="1.0" standalone="no"?>
<!DOCTYPE svg PUBLIC "-//W3C//DTD SVG 20010904//EN"
 "http://www.w3.org/TR/2001/REC-SVG-20010904/DTD/svg10.dtd">
<svg version="1.0" xmlns="http://www.w3.org/2000/svg"
 width="300.000000pt" height="300.000000pt" viewBox="0 0 300.000000 300.000000"
 preserveAspectRatio="xMidYMid meet">
<metadata>
Created by potrace 1.10, written by Peter Selinger 2001-2011
</metadata>
<g transform="translate(0.000000,300.000000) scale(0.100000,-0.100000)"
fill="#000000" stroke="none">
<path d="M2107 2013 c-14 -15 -21 -16 -37 -5 -32 20 -68 15 -86 -13 -24 -37
-30 -101 -10 -120 10 -10 16 -33 16 -61 0 -60 20 -94 69 -122 23 -13 41 -26
41 -30 0 -11 -58 -34 -68 -28 -5 3 -12 23 -16 45 -8 52 -50 68 -88 34 -18 -16
-21 -16 -48 1 -63 37 -99 -20 -108 -166 l-5 -99 -31 3 -31 3 -5 82 c-3 46 -11
88 -17 94 -8 8 -8 18 -1 34 15 33 -5 65 -42 65 -36 0 -64 -34 -49 -62 7 -12 6
-26 -4 -43 l-13 -25 -39 29 c-52 39 -107 41 -159 6 -20 -14 -39 -25 -43 -25
-3 0 -18 11 -35 25 -40 34 -102 34 -152 0 l-38 -26 -50 18 c-46 16 -52 22 -62
57 -6 21 -20 45 -32 52 -18 13 -24 12 -47 -6 -38 -30 -50 -86 -51 -231 -1
-111 1 -129 18 -148 24 -26 58 -27 81 -1 19 21 45 27 45 10 0 -5 13 -16 29
-24 25 -13 31 -13 50 1 19 13 30 13 64 4 23 -6 56 -11 72 -10 17 0 43 -2 58
-6 20 -5 33 -3 47 10 17 15 24 16 50 5 16 -7 47 -10 67 -8 21 3 46 0 55 -6 12
-7 25 -6 45 4 40 20 122 20 161 1 30 -15 35 -15 64 2 22 12 34 15 42 7 15 -15
52 -12 66 5 11 14 15 14 37 -1 31 -20 65 -12 82 20 l13 24 42 -29 c46 -33 67
-31 84 5 8 18 5 35 -14 82 l-24 59 24 45 c26 49 26 78 1 96 -15 11 -15 13 3
23 11 6 43 16 71 22 66 14 101 42 101 79 0 20 8 35 23 45 41 27 61 97 35 123
-7 7 -24 12 -38 12 -16 0 -37 11 -54 29 -15 16 -42 31 -59 34 -18 3 -43 8 -57
12 -17 4 -31 1 -43 -12z m-60 -51 c-8 -9 -19 -30 -25 -47 -10 -29 -10 -29 -11
-5 -1 14 6 36 15 48 9 13 14 26 11 29 -8 7 -37 -53 -37 -77 0 -11 -4 -20 -10
-20 -21 0 -2 70 27 102 14 15 17 15 30 2 14 -13 14 -17 0 -32z m116 26 c2 -7
-7 -37 -20 -67 -13 -30 -22 -56 -20 -58 2 -2 21 24 41 57 35 57 57 72 71 50 4
-6 -9 -32 -27 -58 -54 -75 -54 -80 -2 -29 28 26 55 47 62 47 26 0 10 -38 -33
-80 -25 -24 -44 -49 -42 -55 2 -5 19 -10 38 -10 27 0 34 -4 34 -19 0 -16 -14
-23 -76 -39 -91 -24 -129 -15 -156 36 -14 28 -14 37 3 109 19 84 23 91 43 79
10 -6 10 -17 3 -45 -6 -20 -7 -36 -2 -36 4 0 13 21 20 48 7 26 17 55 22 65 10
20 34 23 41 5z m156 -85 c-12 -32 -38 -63 -51 -63 -6 0 2 14 16 31 14 17 26
37 26 45 0 8 4 14 10 14 6 0 6 -10 -1 -27z m27 -6 c-8 -33 -44 -77 -64 -77
-12 0 -10 6 10 28 15 15 32 40 38 56 12 33 25 28 16 -7z m-1372 -257 c1 -33 2
-60 4 -60 1 0 14 7 27 16 32 21 68 12 83 -21 15 -32 16 -179 2 -206 -13 -23
-46 -25 -54 -3 -3 9 -6 41 -6 72 0 69 -12 92 -37 76 -13 -8 -20 -30 -25 -73
-7 -64 -20 -91 -44 -91 -24 0 -34 38 -34 133 0 108 13 190 36 225 15 22 17 23
32 8 11 -10 16 -35 16 -76z m1016 61 c5 -11 10 -50 10 -87 l0 -68 49 48 c76
74 113 43 51 -41 l-31 -42 26 -51 c53 -104 7 -150 -49 -49 -35 63 -56 67 -56
9 0 -23 -8 -47 -20 -61 -20 -24 -20 -24 -36 -4 -13 17 -15 46 -12 171 3 133 5
155 22 173 24 26 32 26 46 2z m-323 -7 c7 -18 -12 -34 -39 -34 -18 0 -25 30
-11 43 12 13 44 7 50 -9z m208 -164 c0 -174 0 -175 -23 -178 -17 -3 -25 4 -36
30 -46 110 -16 337 42 326 15 -3 17 -22 17 -178z m-610 94 c46 -22 65 -73 65
-178 0 -59 -4 -87 -14 -95 -16 -13 -42 -6 -50 15 -4 11 -10 12 -25 4 -36 -19
-78 -12 -100 16 -12 15 -21 35 -21 45 0 28 41 68 85 83 42 15 58 42 30 53 -10
3 -30 -2 -47 -11 -33 -20 -58 -15 -58 12 0 22 25 47 60 61 34 13 37 13 75 -5z
m257 -24 c30 -33 41 -84 36 -179 -2 -49 -7 -67 -21 -75 -15 -9 -22 -7 -36 11
-12 15 -22 18 -32 12 -26 -16 -77 -10 -99 13 -43 46 -13 106 67 133 41 14 55
41 28 52 -10 3 -30 -2 -47 -11 -16 -10 -36 -15 -44 -12 -20 8 -17 43 6 64 46
39 101 37 142 -8z m142 14 c11 -28 6 -202 -6 -229 -18 -40 -45 -32 -59 18 -13
49 -8 172 10 205 14 25 46 29 55 6z m96 -212 c21 -17 21 -19 5 -35 -21 -22
-31 -21 -56 4 -16 16 -18 23 -8 35 15 19 32 18 59 -4z"/>
<path d="M1212 1458 c-20 -20 -14 -30 15 -26 32 4 46 38 16 38 -11 0 -24 -5
-31 -12z"/>
<path d="M1440 1455 c-7 -9 -10 -18 -7 -21 11 -11 57 6 57 21 0 20 -34 19 -50
0z"/>
</g>
</svg>
